<svg id="Layer_1" data-name="Layer 1" xmlns="http://www.w3.org/2000/svg" viewBox="0 0 450.29 289.91">
  <defs>
    <style>
      .cls-1 {
        fill: #0e1b26;
      }

      .cls-2 {
        fill: #21497f;
        stroke: #fff;
        stroke-width: 0.28px;
      }

      .cls-2, .cls-5, .cls-6, .cls-7 {
        stroke-miterlimit: 10;
      }

      .cls-3 {
        fill: #0b3f63;
      }

      .cls-4 {
        fill: #0058a9;
      }

      .cls-5, .cls-7, .cls-9 {
        fill: #fff;
      }

      .cls-5, .cls-6, .cls-7 {
        stroke: #231f20;
      }

      .cls-5 {
        stroke-width: 0.5px;
      }

      .cls-6 {
        fill: #e6e7e8;
      }

      .cls-6, .cls-7 {
        stroke-width: 0.57px;
      }

      .cls-8 {
        fill: #0c1b26;
      }
    </style>
  </defs>
  <title>logo</title>
  <path class="cls-1" d="M207.67,490.33c-0.55,10.69,21.1,24.23,30.33,28.33,58.23,25.85,125.9,30.12,168,27.19,131.58-9.19,211.67-44.93,236.67-67.19,8.87-7.9,14.38-14.33,13.21-20.85-5.72-31.86-163.82-27-241.21-21.15C392.4,438.36,209.56,453.9,207.67,490.33Z" transform="translate(-205.84 -256.75)"/>
  <path class="cls-2" d="M206,488.05c1.28,30.46,124.16,57.61,232,49.92,104.34-7.44,220.63-49.35,217.95-79.49-2.75-30.94-130.89-49.33-234.05-41.62C325.5,424.08,204.71,457.54,206,488.05Z" transform="translate(-205.84 -256.75)"/>
  <path class="cls-3" d="M626,447c0.38-11.65-55.4-32-111-25.5C458.87,428.1,460.93,458,408,460c-52.52,2-78.78,3-94.65-.36-4.93-1-16.83-3.77-21,1.7-2.5,3.27-1.2,8.11-.9,9.23,4.87,18.13,52.76,24,66.94,25.75,33.8,4.15,61.65,1.81,87-.31,17.17-1.44,31.26-3.38,40.64-4.87,21.08-3.34,38.18-7.39,54-11.13,20.37-4.82,34.58-10.21,63-21C623.27,451.3,625.92,449.36,626,447Z" transform="translate(-205.84 -256.75)"/>
  <path class="cls-4" d="M412.92,282.63c49-30.59,97.17-27.4,159.08-23.3,12.82,0.85,41.5,3.81,53.33,21.33,1.27,1.88,5.63,8.33,3.33,12.67-2.87,5.43-13.42,1.74-24,4.67-14.57,4-22.56,16.07-35.33,35.91-15.65,24.31-23.86,36.45-24,50.31-0.21,32.49,29.16,47.78,22.38,68.4-1.89,5.74-7,13.08-33.06,23.18-28.61,11.1-51.81,13.6-99.7,16.7-54,3.49-78.49,3.79-109-5-16.63-4.79-32.18-10.48-33.59-20.26-0.89-6.15,4.08-11.55,5.59-13.24C329.87,418.17,335.32,331.1,412.92,282.63Z" transform="translate(-205.84 -256.75)"/>
  <path class="cls-3" d="M585.5,306.5c-5.92,4-11.45,7.81-16.83,8.83C552.6,318.39,538.17,296.88,534,300c-3.66,2.74,8.07,18.8,3,25-5.31,6.5-23.68-8.66-38.5-1-4.37,2.26-13.15,8.1-21.33,33.83-5.06,15.91-23,72.27,1.33,92.33,16,13.19,44.65,17.85,44.75,17.58h0l0-.25s0.07-.51.18-1a73.28,73.28,0,0,1,14.37-26.14c0.73-.84,2.7-3.22,5.38-6.56,0.73-.91,1.56-2,2.62-3.6,5.37-7.93,8.51-12.57,7.17-17.17-0.64-2.19-2.3-4.36-4.37-10.12-0.2-.55-0.47-1.22-0.75-2.12a35.69,35.69,0,0,1-1.41-7.31,65.43,65.43,0,0,1,0-11.94s10-32.63,15-37a11.76,11.76,0,0,0,3.95-3.68h0c3.5-3.75,4.36-6.15,8.46-13.13,3.52-6,6.5-10.31,7.34-11.44a61.75,61.75,0,0,1,5.9-7.12c2.92-3,6.77-6.83,13-9.5A29.42,29.42,0,0,1,610,297c2.09-.15,3.28,0,6.75-0.12,3.12-.13,5.67-0.4,7.38-0.62a78.52,78.52,0,0,1-11.62.63,44.76,44.76,0,0,0-5.08-.31,22.42,22.42,0,0,0-5.92,1.19C595,300,586.51,305.81,585.5,306.5Z" transform="translate(-205.84 -256.75)"/>
  <path class="cls-5" d="M429.18,450.16l63.53-134.8,29.69,11.88,47.78,19.11L511.3,476.5Z" transform="translate(-205.84 -256.75)"/>
  <path class="cls-6" d="M511.67,475.33l-5.83-76.67,63.5-51Z" transform="translate(-205.84 -256.75)"/>
  <path class="cls-7" d="M492.83,315.83c10.58,44.36,18.11,76.87,18.83,80.92a8.83,8.83,0,0,1-.42,5.08,9.46,9.46,0,0,1-2.92,3.5c-3.23,2.37-35.14,20.44-78.83,44.67Z" transform="translate(-205.84 -256.75)"/>
  <path class="cls-8" d="M552.56,411.75a400.61,400.61,0,0,1-129.9,24.92,399.75,399.75,0,0,1-106.82-12,33.27,33.27,0,0,0-12.19,22A330.51,330.51,0,0,0,355.33,460c70.47,12.2,128.4-1.52,160-9.33A464,464,0,0,0,566,435,32,32,0,0,0,552.56,411.75Z" transform="translate(-205.84 -256.75)"/>
  <path class="cls-9" d="M358.06,401.94l3.15-6.11,1.11,7,5.18,0.37-5.37,2.59-0.19,5.37-3.24-4.26-5,3.33,2.13-5.37-4.35-3.52Z" transform="translate(-205.84 -256.75)"/>
  <path class="cls-9" d="M478.82,275.33l4.75-5.09-0.39,6,4.42,1-4.6,2.06L482.68,284l-3.19-3.51-5.12,3.41,2.18-5.5-4.46-3.6Z" transform="translate(-205.84 -256.75)"/>
  <path class="cls-9" d="M452.78,324.51l4.93-6.36-0.06,7.42,5.94,0.42-6.15,3-0.21,6.15-3.71-4.88-5.72,3.82,2.44-6.15-5-4Z" transform="translate(-205.84 -256.75)"/>
  <path class="cls-9" d="M394.22,333.22l4-5,0,5.9,4.93,0.35-5.11,2.47L397.92,342,394.84,338l-4.76,3.17,2-5.11L388,332.69Z" transform="translate(-205.84 -256.75)"/>
  <path class="cls-9" d="M537.43,279.91l3.16-2.81,0,3.28,3,0.83-3.15.68-0.14,2.73-2.44-2.16-3.76,1.69,1.6-2.73-3.27-1.79Z" transform="translate(-205.84 -256.75)"/>
  <path class="cls-9" d="M427.54,402.83l3.6-7,1.27,8.06,5.94,0.42-6.15,3L432,413.43l-3.71-4.88-5.72,3.82,2.44-6.15-5-4Z" transform="translate(-205.84 -256.75)"/>
  <path class="cls-3" d="M592.5,395" transform="translate(-205.84 -256.75)"/>
  <path class="cls-3" d="M488.48,267c0-1.54,33.17-7.08,36.67,4.86,0.69,2.34.28,5.53-1,7.06-2.15,2.58-6.7.37-15.33-4-5.25-2.64-5.65-3.34-9.33-4.86C492.41,267.22,488.47,267.57,488.48,267Z" transform="translate(-205.84 -256.75)"/>
  <path class="cls-3" d="M550.33,335.33c-3.62-2.58,24.54-33.58,14.67-53.83-4.53-9.29-15.93-14.11-25.75-18.25A84.05,84.05,0,0,0,512.38,257c-0.6,0-2.73-.1-2.73-0.15s12-.05,23.37.29c8.33,0.25,6.32.35,28.4,1.48,0,0,22.66,1.16,32.73,3.75,2.84,0.73,5.69,1.64,5.69,1.64a71.07,71.07,0,0,1,7.33,2.67A54.13,54.13,0,0,1,616,271.5a36.76,36.76,0,0,1,5.56,4.56c0.8,0.82,1.43,1.55,1.71,1.88a34.81,34.81,0,0,1,2.94,4c1.78,2.84,2.66,4.26,3,6.38a7.1,7.1,0,0,1-.5,5.08,6.17,6.17,0,0,1-3,2.4c-5.2,2.2-9.62.68-16,1.38A40.91,40.91,0,0,0,602,299c-10.66,3.14-18.74,10.35-23,13.67C559.57,327.93,552.19,336.66,550.33,335.33Z" transform="translate(-205.84 -256.75)"/>
</svg>